<mxfile host="app.diagrams.net" modified="2024-03-22T17:13:23.931Z" agent="Mozilla/5.0 (Windows NT 10.0; Win64; x64) AppleWebKit/537.36 (KHTML, like Gecko) Chrome/120.0.0.0 YaBrowser/24.1.0.0 Safari/537.36" etag="8kSyWzrltIwcmuX29hs4" version="24.0.1" type="device">
  <diagram name="Page-1" id="e7e014a7-5840-1c2e-5031-d8a46d1fe8dd">
    <mxGraphModel dx="1002" dy="575" grid="1" gridSize="10" guides="1" tooltips="1" connect="1" arrows="1" fold="1" page="1" pageScale="1" pageWidth="1169" pageHeight="826" background="none" math="0" shadow="0">
      <root>
        <mxCell id="0" />
        <mxCell id="1" parent="0" />
        <mxCell id="2" value="Пользователь" style="swimlane;whiteSpace=wrap" parent="1" vertex="1">
          <mxGeometry x="164.5" y="128" width="280" height="702" as="geometry" />
        </mxCell>
        <mxCell id="5" value="" style="ellipse;shape=startState;fillColor=#000000;strokeColor=#ff0000;" parent="2" vertex="1">
          <mxGeometry x="100" y="40" width="30" height="30" as="geometry" />
        </mxCell>
        <mxCell id="6" value="" style="edgeStyle=elbowEdgeStyle;elbow=horizontal;verticalAlign=bottom;endArrow=open;endSize=8;strokeColor=#FF0000;endFill=1;rounded=0" parent="2" source="5" target="7" edge="1">
          <mxGeometry x="100" y="40" as="geometry">
            <mxPoint x="115" y="110" as="targetPoint" />
          </mxGeometry>
        </mxCell>
        <mxCell id="7" value="Заполнение формы&#xa; авторизации" style="" parent="2" vertex="1">
          <mxGeometry x="60" y="212" width="110" height="50" as="geometry" />
        </mxCell>
        <mxCell id="8" value="Нажатие кнопки " style="" parent="2" vertex="1">
          <mxGeometry x="60" y="322" width="110" height="50" as="geometry" />
        </mxCell>
        <mxCell id="9" value="" style="endArrow=open;strokeColor=#FF0000;endFill=1;rounded=0" parent="2" source="7" target="8" edge="1">
          <mxGeometry relative="1" as="geometry" />
        </mxCell>
        <mxCell id="10" value="Отправка формы " style="" parent="2" vertex="1">
          <mxGeometry x="60" y="445" width="110" height="50" as="geometry" />
        </mxCell>
        <mxCell id="11" value="" style="endArrow=open;strokeColor=#FF0000;endFill=1;rounded=0" parent="2" source="8" target="10" edge="1">
          <mxGeometry relative="1" as="geometry" />
        </mxCell>
        <mxCell id="38" value="" style="ellipse;shape=endState;fillColor=#000000;strokeColor=#ff0000" parent="2" vertex="1">
          <mxGeometry x="100" y="642" width="30" height="30" as="geometry" />
        </mxCell>
        <mxCell id="3" value="Система" style="swimlane;whiteSpace=wrap" parent="1" vertex="1">
          <mxGeometry x="445" y="128" width="280" height="702" as="geometry" />
        </mxCell>
        <mxCell id="13" value="" style="ellipse;shape=startState;fillColor=#000000;strokeColor=#ff0000;" parent="3" vertex="1">
          <mxGeometry x="125.5" y="52" width="30" height="30" as="geometry" />
        </mxCell>
        <mxCell id="14" value="" style="edgeStyle=elbowEdgeStyle;elbow=horizontal;verticalAlign=bottom;endArrow=open;endSize=8;strokeColor=#FF0000;endFill=1;rounded=0" parent="3" source="13" target="15" edge="1">
          <mxGeometry x="40" y="20" as="geometry">
            <mxPoint x="120.5" y="102" as="targetPoint" />
          </mxGeometry>
        </mxCell>
        <mxCell id="15" value="Загрузка страницы" style="" parent="3" vertex="1">
          <mxGeometry x="85.5" y="122" width="110" height="50" as="geometry" />
        </mxCell>
        <mxCell id="18" value="Выполнение &#xa;запроса поиска&#xa; по логину и паролю" style="" parent="3" vertex="1">
          <mxGeometry x="45.5" y="445" width="110" height="50" as="geometry" />
        </mxCell>
        <mxCell id="XaVz3f0vhZOFfbETc9kC-45" value="Вернулась&amp;nbsp;&lt;div&gt;строка?&lt;/div&gt;" style="shape=rhombus;perimeter=rhombusPerimeter;whiteSpace=wrap;html=1;" vertex="1" parent="3">
          <mxGeometry x="75" y="542" width="110" height="50" as="geometry" />
        </mxCell>
        <mxCell id="4" value="База данных" style="swimlane;whiteSpace=wrap" parent="1" vertex="1">
          <mxGeometry x="724.5" y="128" width="280" height="702" as="geometry" />
        </mxCell>
        <mxCell id="33" value="Выполнение &#xa;SQL запроса" style="" parent="4" vertex="1">
          <mxGeometry x="90" y="445" width="110" height="50" as="geometry" />
        </mxCell>
        <mxCell id="20" value="" style="endArrow=open;strokeColor=#FF0000;endFill=1;rounded=0" parent="1" source="10" target="18" edge="1">
          <mxGeometry relative="1" as="geometry" />
        </mxCell>
        <mxCell id="XaVz3f0vhZOFfbETc9kC-42" value="" style="edgeStyle=elbowEdgeStyle;elbow=horizontal;verticalAlign=bottom;endArrow=open;endSize=8;strokeColor=#FF0000;endFill=1;rounded=0;" edge="1" parent="1" source="15" target="7">
          <mxGeometry x="100" y="40" as="geometry">
            <mxPoint x="290.5" y="350" as="targetPoint" />
            <mxPoint x="289.5" y="208" as="sourcePoint" />
            <Array as="points">
              <mxPoint x="310" y="270" />
            </Array>
          </mxGeometry>
        </mxCell>
        <mxCell id="XaVz3f0vhZOFfbETc9kC-46" value="" style="edgeStyle=none;strokeColor=#FF0000;endArrow=open;endFill=1;rounded=0;exitX=0.5;exitY=1;exitDx=0;exitDy=0;" edge="1" parent="1" source="33" target="XaVz3f0vhZOFfbETc9kC-45">
          <mxGeometry width="100" height="100" relative="1" as="geometry">
            <mxPoint x="704.5" y="607.5" as="sourcePoint" />
            <mxPoint x="824.5" y="608" as="targetPoint" />
            <Array as="points">
              <mxPoint x="870" y="640" />
              <mxPoint x="575" y="640" />
            </Array>
          </mxGeometry>
        </mxCell>
        <mxCell id="XaVz3f0vhZOFfbETc9kC-49" value="" style="edgeStyle=none;strokeColor=#FF0000;endArrow=open;endFill=1;rounded=0;exitX=0;exitY=0.5;exitDx=0;exitDy=0;entryX=0.5;entryY=0;entryDx=0;entryDy=0;" edge="1" parent="1" source="XaVz3f0vhZOFfbETc9kC-45" target="38">
          <mxGeometry width="100" height="100" relative="1" as="geometry">
            <mxPoint x="880" y="633" as="sourcePoint" />
            <mxPoint x="621" y="696" as="targetPoint" />
            <Array as="points">
              <mxPoint x="280" y="695" />
            </Array>
          </mxGeometry>
        </mxCell>
        <mxCell id="XaVz3f0vhZOFfbETc9kC-50" value="Да" style="edgeLabel;html=1;align=center;verticalAlign=middle;resizable=0;points=[];" vertex="1" connectable="0" parent="XaVz3f0vhZOFfbETc9kC-49">
          <mxGeometry x="-0.1644" relative="1" as="geometry">
            <mxPoint as="offset" />
          </mxGeometry>
        </mxCell>
        <mxCell id="XaVz3f0vhZOFfbETc9kC-52" value="" style="edgeStyle=none;strokeColor=#FF0000;endArrow=open;endFill=1;rounded=0;exitX=1;exitY=0.5;exitDx=0;exitDy=0;entryX=0;entryY=0.5;entryDx=0;entryDy=0;" edge="1" parent="1" source="18" target="33">
          <mxGeometry width="100" height="100" relative="1" as="geometry">
            <mxPoint x="880" y="633" as="sourcePoint" />
            <mxPoint x="621" y="696" as="targetPoint" />
          </mxGeometry>
        </mxCell>
        <mxCell id="XaVz3f0vhZOFfbETc9kC-54" value="" style="edgeStyle=none;strokeColor=#FF0000;endArrow=open;endFill=1;rounded=0;exitX=1;exitY=0.5;exitDx=0;exitDy=0;entryX=1;entryY=0.5;entryDx=0;entryDy=0;" edge="1" parent="1" source="XaVz3f0vhZOFfbETc9kC-45" target="7">
          <mxGeometry width="100" height="100" relative="1" as="geometry">
            <mxPoint x="530" y="705" as="sourcePoint" />
            <mxPoint x="360" y="430" as="targetPoint" />
            <Array as="points">
              <mxPoint x="630" y="365" />
            </Array>
          </mxGeometry>
        </mxCell>
        <mxCell id="XaVz3f0vhZOFfbETc9kC-56" value="Нет" style="edgeLabel;html=1;align=center;verticalAlign=middle;resizable=0;points=[];" vertex="1" connectable="0" parent="XaVz3f0vhZOFfbETc9kC-54">
          <mxGeometry x="-0.1802" y="-2" relative="1" as="geometry">
            <mxPoint as="offset" />
          </mxGeometry>
        </mxCell>
      </root>
    </mxGraphModel>
  </diagram>
</mxfile>
